<?xml version="1.0" encoding="UTF-8" standalone="no"?>
<!-- Created with Inkscape (http://www.inkscape.org/) -->

<svg
   width="132.29175mm"
   height="132.19733mm"
   viewBox="0 0 132.29175 132.19732"
   version="1.1"
   id="svg5"
   xml:space="preserve"
   inkscape:version="1.2.1 (9c6d41e410, 2022-07-14)"
   sodipodi:docname="path1849.svg"
   xmlns:inkscape="http://www.inkscape.org/namespaces/inkscape"
   xmlns:sodipodi="http://sodipodi.sourceforge.net/DTD/sodipodi-0.dtd"
   xmlns="http://www.w3.org/2000/svg"
   xmlns:svg="http://www.w3.org/2000/svg"><sodipodi:namedview
     id="namedview7"
     pagecolor="#505050"
     bordercolor="#eeeeee"
     borderopacity="1"
     inkscape:showpageshadow="0"
     inkscape:pageopacity="0"
     inkscape:pagecheckerboard="0"
     inkscape:deskcolor="#505050"
     inkscape:document-units="mm"
     showgrid="false"
     inkscape:zoom="0.5052024"
     inkscape:cx="-3776.7041"
     inkscape:cy="2973.0658"
     inkscape:window-width="1920"
     inkscape:window-height="1000"
     inkscape:window-x="-11"
     inkscape:window-y="-11"
     inkscape:window-maximized="1"
     inkscape:current-layer="layer2" /><defs
     id="defs2" /><g
     inkscape:groupmode="layer"
     id="layer2"
     inkscape:label="Layer 2"
     transform="translate(1868.6477,-1036.2999)"><path
       style="fill:#27272a;fill-opacity:1;stroke-width:0.588966"
       d="m -1811.3208,1167.9522 c -25.2658,-3.156 -47.5253,-22.3803 -54.7398,-47.2759 -10.1157,-34.9066 10.3432,-71.7761 45.4784,-81.9579 11.1497,-3.2311 25.0607,-3.2255 36.2409,0.022 30.7767,8.9187 51.0265,38.8326 47.6103,70.3312 -4.0503,37.3436 -37.2475,63.5527 -74.5898,58.8883 z m 15.1896,-50.2933 c 14.3253,-12.5476 15.1421,-13.373 15.1421,-15.3016 0,-1.9284 -0.8168,-2.7538 -15.1421,-15.3016 -15.8568,-13.8893 -16.6003,-14.3605 -19.4758,-12.3464 -0.9659,0.6765 -1.3091,1.5092 -1.3091,3.1754 0,2.2055 0.2958,2.5165 12.6629,13.3163 6.9645,6.0819 12.6627,11.1022 12.6627,11.1563 0,0.053 -5.6982,5.0744 -12.6627,11.1564 -12.3671,10.7997 -12.6629,11.1107 -12.6629,13.3164 0,1.6662 0.3432,2.499 1.3091,3.1752 2.8755,2.0143 3.619,1.5429 19.4758,-12.3464 z"
       id="path313" /></g></svg>
