<?xml version="1.0" encoding="UTF-8" standalone="no"?>
<!-- Created with Inkscape (http://www.inkscape.org/) -->

<svg
   width="338.66663mm"
   height="254.79376mm"
   viewBox="0 0 338.66663 254.79376"
   version="1.1"
   id="svg5"
   xml:space="preserve"
   inkscape:version="1.2.1 (9c6d41e410, 2022-07-14)"
   sodipodi:docname="drawing-1.svg"
   xmlns:inkscape="http://www.inkscape.org/namespaces/inkscape"
   xmlns:sodipodi="http://sodipodi.sourceforge.net/DTD/sodipodi-0.dtd"
   xmlns="http://www.w3.org/2000/svg"
   xmlns:svg="http://www.w3.org/2000/svg"><sodipodi:namedview
     id="namedview7"
     pagecolor="#505050"
     bordercolor="#eeeeee"
     borderopacity="1"
     inkscape:showpageshadow="0"
     inkscape:pageopacity="0"
     inkscape:pagecheckerboard="0"
     inkscape:deskcolor="#505050"
     inkscape:document-units="mm"
     showgrid="false"
     inkscape:zoom="0.25"
     inkscape:cx="5416"
     inkscape:cy="3936"
     inkscape:window-width="1920"
     inkscape:window-height="1046"
     inkscape:window-x="-11"
     inkscape:window-y="-11"
     inkscape:window-maximized="1"
     inkscape:current-layer="layer2" /><defs
     id="defs2" /><g
     inkscape:groupmode="layer"
     id="layer2"
     inkscape:label="Layer 2"
     transform="translate(1049.9416,-594.942)"><rect
       style="opacity:1;fill:#ff0000;stroke-width:1.10606"
       id="rect508"
       width="338.66666"
       height="254.79375"
       x="-1049.9415"
       y="594.94196"
       inkscape:export-filename="..\..\Coding\portofolio-tailwind\dist\img\setan.svg"
       inkscape:export-xdpi="96"
       inkscape:export-ydpi="96" /><path
       id="path1480"
       style="fill:#000000;stroke-width:0.296342"
       d="m -889.21427,642.03965 c -0.11202,0.11608 -1.34613,2.61166 -2.74232,5.54543 l -2.5386,5.33417 -4.28597,0.0816 -4.28538,0.0822 3.57116,5.40014 c 3.97868,6.01675 7.77511,13.32511 9.14726,17.60865 1.4199,4.43263 1.29715,4.85371 -2.49056,8.53606 -3.79591,3.69034 -4.4775,5.11142 -4.47638,9.33478 10e-4,3.73135 0.21756,4.29407 3.60762,9.38457 2.19615,3.29775 2.31865,3.56856 2.31865,5.12407 0,1.394 -0.28495,2.25556 -1.88398,5.70227 -1.03608,2.23325 -2.33723,4.78583 -2.89165,5.67218 -1.85349,2.96321 -4.1837,3.25631 -5.42561,0.6824 -1.08833,-2.25557 -2.26736,-15.37525 -2.05009,-22.81027 0.13184,-4.51158 -0.45741,-2.90827 4.80283,-13.06223 l 2.28797,-4.41735 -1.75433,-0.84214 c -2.27917,-1.0939 -5.0856,-4.06857 -6.91427,-7.32869 -1.6372,-2.91878 -3.4895,-8.33208 -4.47292,-13.07322 -0.77548,-3.73861 -1.26944,-4.36154 -2.13402,-2.68966 -0.25695,0.49691 -0.87878,1.3721 -1.38157,1.94475 -1.1211,1.27684 -2.05452,1.34297 -4.1268,0.29287 -0.81203,-0.41149 -2.27406,-0.95244 -3.24877,-1.20216 -2.97582,-0.76236 -2.99109,-0.74539 -6.67929,7.06302 -1.64759,3.48819 -2.0943,4.18649 -3.10002,4.85204 -1.55184,1.02696 -3.28049,0.88097 -7.21697,-0.61005 -1.75154,-0.66342 -3.03142,-0.99931 -3.19264,-0.83809 -0.16122,0.16123 0.32256,1.50745 1.20679,3.35874 0.81172,1.69947 1.68076,3.89029 1.93085,4.86823 0.53493,2.09166 1.33554,7.52278 1.34338,9.11253 0.003,0.61122 0.1486,1.11129 0.32355,1.11129 0.17492,0 1.4095,-0.99944 2.74406,-2.22084 6.00513,-5.49594 9.75472,-7.36271 14.7251,-7.33158 5.03269,0.0315 6.20366,3.15522 2.63409,7.02772 -0.69118,0.74984 -2.03127,1.84144 -2.97789,2.42572 -2.56831,1.58526 -2.6371,2.98704 -0.17711,3.60647 1.77753,0.44759 3.23219,1.48927 3.85592,2.76027 0.67872,1.38303 0.97257,7.22508 1.41226,28.10797 0.35211,16.72377 0.56832,19.17501 1.96674,22.29109 0.93482,2.08306 2.84362,3.92268 4.54527,4.3809 0.68436,0.18427 3.26329,0.35962 5.73122,0.38952 l 4.48739,0.0544 0.0851,2.71744 c 0.084,2.6876 -0.3695,8.18342 -1.29187,15.65521 -0.56041,4.53964 -0.4334,8.59991 0.32933,10.52015 0.29132,0.73346 1.5759,2.80045 2.85461,4.59332 1.27871,1.79288 2.75691,4.12315 3.28524,5.17847 0.9177,1.83303 0.95959,2.06471 0.9307,5.186 -0.0167,1.79696 -0.0833,4.4118 -0.14817,5.8105 -0.14157,3.05337 0.23139,3.96451 1.95633,4.77738 0.90571,0.42684 1.60479,0.52347 2.96342,0.4092 4.09592,-0.34448 10.31557,-2.63064 13.303,-4.89023 2.36897,-1.79183 3.20434,-3.23021 3.05951,-5.26645 -0.11699,-1.64459 -0.21069,-1.81252 -3.59547,-6.46281 -2.82849,-3.88599 -5.21031,-8.67497 -5.21031,-10.47618 0,-1.70438 0.51978,-2.28025 3.8947,-4.31491 1.24558,-0.7509 2.74581,-1.89812 3.33386,-2.54901 0.95158,-1.05325 1.06903,-1.36029 1.06903,-2.79325 0,-1.4297 -0.14855,-1.81988 -1.32428,-3.48145 -4.94826,-6.99297 -7.43264,-11.41066 -8.13437,-14.46521 -0.37711,-1.64141 -0.41323,-4.3535 -0.0608,-4.57132 0.14315,-0.0885 0.90652,0.53721 1.69586,1.39026 10.96185,11.84651 27.55762,29.24417 28.15717,29.51734 0.94003,0.42831 1.78367,0.20139 2.20926,-0.59384 0.45692,-0.85375 0.37772,-4.24127 -0.15164,-6.48018 -0.25049,-1.05941 -0.53724,-3.79321 -0.63726,-6.07502 -0.15211,-3.47108 -0.0743,-4.82652 0.47751,-8.2976 1.01745,-6.40053 1.06288,-8.3177 0.23441,-9.91011 -1.02686,-1.9737 -1.88827,-2.46228 -4.70674,-2.66939 -3.01749,-0.22172 -3.35192,-0.55345 -3.1527,-3.12664 0.0757,-0.97794 0.45068,-3.15924 0.83346,-4.8474 l 0.69629,-3.06993 -0.8242,-0.70844 c -1.35828,-1.16836 -3.23795,-0.99839 -5.19294,0.47056 -0.86377,0.64902 -2.10485,1.32437 -2.75795,1.50023 -1.21877,0.32818 -2.77567,0.15798 -3.0815,-0.33686 -0.23638,-0.38246 2.55825,-6.16073 4.05387,-8.3821 0.67171,-0.99763 1.62223,-2.23821 2.11202,-2.75621 l 0.89019,-0.94169 2.40778,0.88612 c 5.41902,1.99476 10.0965,4.44124 12.44639,6.5097 l 1.37,1.20621 v 24.12645 c 0,23.50083 0.0147,24.14171 0.5759,24.70292 1.26899,1.26899 5.02459,1.19616 6.15605,-0.11923 l 0.67661,-0.786 v -24.57965 -24.57906 l 1.03315,-1.43888 c 2.34813,-3.26841 3.33712,-7.39496 2.56638,-10.71174 -0.28426,-1.22322 -0.25117,-1.39401 0.40052,-2.0744 1.01121,-1.05576 1.63046,-2.71725 1.63046,-4.37395 0,-3.09097 -1.79499,-7.75812 -4.2223,-10.97799 l -1.40821,-1.86834 v -4.5771 -4.57768 h 6.37137 6.37136 v -10.23598 -10.23539 l 1.03721,-1.54017 c 0.57043,-0.84708 1.03719,-1.65764 1.03719,-1.80179 0,-0.34541 -5.14227,-9.65261 -5.33416,-9.65485 -0.1975,-0.002 -5.33673,9.30023 -5.32665,9.64213 0.004,0.14677 0.47092,0.99393 1.03721,1.88281 l 1.02967,1.616 v 5.43198 5.43139 l -3.33385,-0.0839 -3.33385,-0.0833 -0.0817,-5.16863 -0.081,-5.16863 1.09392,-1.77169 c 0.60161,-0.97468 1.09392,-1.93052 1.09392,-2.12417 0,-0.37657 -5.16917,-9.68933 -5.30349,-9.55474 -0.2915,0.29212 -5.26189,9.32657 -5.26413,9.56747 -10e-4,0.16533 0.49011,1.04171 1.09161,1.94764 l 1.09334,1.64725 -0.0811,5.31275 -0.081,5.31275 -3.33385,0.0833 -3.33385,0.0839 v -5.3793 -5.37873 l 1.07714,-1.77401 c 1.26246,-2.07825 1.44276,-1.40873 -2.04488,-7.59551 l -2.23067,-3.95722 -0.73912,1.29014 c -0.40644,0.70973 -1.62988,2.87275 -2.7186,4.80687 l -1.97948,3.51676 1.05804,1.71439 1.05803,1.71381 v 10.25333 10.25334 h 6.37137 6.37137 v 3.21519 3.21521 l -2.59301,0.18984 c -3.39708,0.24869 -4.14158,0.47917 -9.32263,2.88182 -6.47792,3.00406 -7.65411,3.23836 -8.51579,1.69817 -0.41374,-0.73951 -0.40075,-0.86527 0.16785,-1.62987 0.33888,-0.45569 1.55253,-1.36168 2.69718,-2.01363 1.14463,-0.65195 2.56492,-1.55884 3.15616,-2.01536 1.84802,-1.42691 1.63365,-1.78865 -3.29624,-5.5599 -2.40407,-1.83906 -4.4617,-3.42082 -4.57247,-3.51501 -0.11077,-0.0942 0.004,-0.90418 0.25583,-1.80063 0.28837,-1.02822 0.5454,-3.8177 0.69571,-7.55674 0.15617,-3.88434 0.40561,-6.53958 0.72408,-7.70489 0.75036,-2.74566 3.21312,-7.56363 4.72642,-9.24682 0.74597,-0.82969 1.35612,-1.58942 1.35612,-1.68776 0,-0.0983 -1.83362,-0.18132 -4.07471,-0.1858 l -4.07471,-0.008 -2.36322,-5.35037 c -1.29987,-2.94277 -2.44684,-5.40167 -2.54843,-5.46439 -0.10147,-0.0627 -1.57133,2.34296 -3.26671,5.34631 l -3.08265,5.46092 -3.29624,0.0112 -3.29623,0.0115 -2.92349,-5.61951 c -1.60777,-3.09061 -3.01463,-5.52432 -3.12664,-5.40825 z m 2.88993,17.84365 c 0.70056,0 3.13016,2.42206 3.71585,3.70428 0.73269,1.60409 0.68998,2.41004 -0.17306,3.27309 -0.7777,0.77767 -1.1133,0.84335 -2.16005,0.42251 -1.04565,-0.4204 -1.78178,-1.94553 -2.00322,-4.15053 -0.22433,-2.23406 -0.0303,-3.24935 0.62048,-3.24935 z m 15.5846,5.8e-4 c 0.46218,0 0.53944,0.2566 0.53944,1.79483 0,2.59659 -0.50885,4.30498 -1.54075,5.17326 -0.99335,0.83584 -1.27169,0.87842 -2.31171,0.35481 -1.00813,-0.50756 -1.15797,-2.3737 -0.32238,-4.01162 0.68898,-1.35055 2.84153,-3.31128 3.6354,-3.31128 z m -15.26974,13.66996 h 2.09407 v 2.20578 h -1.7902 a 8.2335611,8.2335611 0 0 1 -0.30387,-2.20578 z m 3.18163,0 h 1.7387 v 2.20578 h -1.7387 z m 2.82625,0 h 1.73811 v 2.20578 h -1.73811 z m 2.82567,0 h 1.73869 v 2.20578 h -1.73869 z m 2.82625,0 h 1.7387 v 2.20578 h -1.7387 z m 2.82568,0 h 1.98121 a 8.2335611,8.2335611 0 0 1 -0.30387,2.20578 h -1.67734 z m -13.79209,3.29333 h 1.40068 v 2.18726 a 8.2335611,8.2335611 0 0 1 -1.40068,-2.18726 z m 2.48824,0 h 1.7387 v 4.23967 a 8.2335611,8.2335611 0 0 1 -1.7387,-1.03662 z m 2.82625,0 h 1.73811 v 4.92438 a 8.2335611,8.2335611 0 0 1 -1.73811,-0.2946 z m 2.82567,0 h 1.73869 v 4.60026 a 8.2335611,8.2335611 0 0 1 -1.73869,0.31718 z m 2.82625,0 h 1.7387 v 3.11797 a 8.2335611,8.2335611 0 0 1 -1.7387,1.07482 z m 2.82568,0 h 1.28955 a 8.2335611,8.2335611 0 0 1 -1.28955,2.0634 z m 22.06767,24.97554 c 3.35224,-0.008 4.32782,0.29487 6.00094,1.86025 0.79602,0.74479 0.81494,0.84035 0.81494,4.11522 v 3.35238 l -1.25945,-0.0238 c -4.57975,-0.0857 -9.62635,-2.51647 -11.35768,-5.47076 -0.94715,-1.61617 -0.67164,-2.28933 1.30749,-3.19436 1.12697,-0.51534 1.95691,-0.6334 4.49376,-0.639 z" /></g></svg>
